<?xml version="1.0" standalone="no"?>
<!DOCTYPE svg PUBLIC "-//W3C//DTD SVG 20010904//EN"
 "http://www.w3.org/TR/2001/REC-SVG-20010904/DTD/svg10.dtd">
<svg version="1.0" xmlns="http://www.w3.org/2000/svg"
 width="750.000000pt" height="500.000000pt" viewBox="0 0 750.000000 500.000000"
 preserveAspectRatio="xMidYMid meet">

<g transform="translate(0.000000,500.000000) scale(0.100000,-0.100000)"
fill="#000000" stroke="none">
<path d="M1 4608 c0 -216 3 -386 5 -378 40 124 61 183 81 219 12 24 23 48 23
52 0 24 142 294 166 314 18 16 82 128 89 158 l7 27 -186 0 -186 0 1 -392z"/>
<path d="M413 4967 c-42 -63 -91 -204 -131 -377 -16 -69 -34 -135 -41 -145 -6
-11 -20 -54 -32 -95 -11 -41 -25 -88 -29 -105 -43 -150 -68 -245 -87 -335 -34
-152 -53 -263 -53 -297 0 -18 -9 -71 -20 -118 -19 -81 -20 -120 -20 -753 1
-621 2 -675 21 -787 32 -193 34 -200 63 -238 27 -35 42 -77 53 -144 3 -18 9
-33 14 -33 5 0 9 -35 9 -79 0 -97 19 -148 58 -158 40 -11 62 -5 112 31 25 18
53 35 63 39 10 4 15 11 12 17 -3 6 1 7 10 4 9 -4 15 -2 13 4 -4 13 42 53 53
46 5 -3 6 1 4 8 -3 8 7 21 23 30 16 10 48 36 73 59 24 23 69 62 99 86 30 25
80 69 110 97 30 29 69 60 85 69 17 9 26 16 21 17 -6 0 6 15 25 33 40 37 64 88
61 129 -2 22 2 28 19 28 18 0 20 4 15 38 -19 124 -27 219 -22 252 4 24 0 51
-9 74 -10 23 -12 42 -6 53 36 71 37 112 3 124 -28 11 -28 16 -1 15 12 -1 24 5
27 12 3 10 -5 13 -29 10 -22 -2 -34 -9 -35 -18 -2 -37 -5 -42 -19 -36 -31 12
-45 -5 -45 -53 0 -26 5 -52 12 -59 8 -8 8 -15 -2 -27 -10 -12 -11 -18 -2 -24
7 -4 8 -12 2 -21 -6 -8 -10 -10 -11 -5 -2 27 -18 -36 -19 -75 -1 -43 -19 -124
-31 -145 -4 -5 -10 -25 -14 -43 -3 -18 -13 -39 -22 -47 -13 -14 -20 -31 -22
-59 -1 -5 -4 -7 -7 -3 -3 3 -15 -3 -27 -13 -11 -11 -24 -17 -29 -14 -4 3 -8
-2 -8 -12 0 -11 -6 -15 -20 -11 -13 3 -18 1 -13 -6 4 -6 0 -8 -10 -4 -10 3
-17 2 -17 -4 0 -6 -9 -8 -20 -4 -12 4 -20 2 -20 -5 0 -6 -4 -9 -9 -6 -10 7
-21 -27 -21 -66 0 -39 -24 -35 -35 4 -10 31 -12 33 -54 30 -41 -4 -43 -2 -38
19 4 13 -4 47 -19 83 -14 34 -26 77 -26 96 0 19 -4 43 -9 52 -5 9 -12 68 -15
130 -3 62 -5 118 -5 123 -1 6 0 57 1 115 2 77 -2 118 -15 153 -16 48 -16 50
17 168 21 76 37 118 45 115 16 -7 113 99 113 123 0 12 -5 21 -11 21 -13 0 -39
-25 -39 -39 0 -11 -71 -83 -77 -78 -8 9 52 100 69 105 12 3 17 10 13 20 -6 16
15 72 27 72 4 0 4 -7 1 -17 -4 -10 -2 -14 4 -10 5 3 20 56 33 117 14 67 28
109 34 107 15 -5 11 -95 -9 -185 -13 -56 -14 -77 -5 -86 9 -8 16 -5 30 12 11
13 24 20 34 16 9 -3 16 -2 16 3 0 13 61 43 92 45 26 2 27 5 22 39 -5 31 -3 39
15 48 13 7 18 17 14 27 -5 12 -7 13 -14 3 -15 -25 -16 -4 -2 44 7 26 18 45 23
42 4 -3 11 1 13 7 4 10 6 10 6 0 1 -7 5 -10 11 -7 5 3 10 -1 10 -10 0 -9 4
-13 10 -10 12 8 24 -38 17 -72 -4 -24 17 -93 29 -93 3 0 2 6 -2 13 -5 8 -4 9
3 2 5 -5 17 -32 26 -60 24 -74 41 -116 61 -150 9 -16 40 -70 68 -120 28 -49
70 -115 94 -146 24 -31 41 -59 39 -63 -3 -3 -2 -4 2 -1 4 3 31 -18 60 -47 29
-28 55 -49 59 -45 4 3 -7 28 -24 54 -80 127 -162 337 -201 517 -19 89 -44 316
-36 325 2 1 19 -28 38 -65 84 -165 227 -351 348 -450 l66 -54 10 -82 c16 -138
-1 -350 -42 -518 -6 -24 -6 -24 9 -6 32 39 114 360 141 546 12 84 17 89 31 35
51 -191 71 -344 76 -567 l3 -148 -140 -49 c-326 -114 -475 -181 -605 -272
-267 -187 -293 -209 -562 -477 -175 -174 -205 -208 -189 -214 11 -4 24 -22 30
-40 5 -18 18 -55 29 -83 11 -27 28 -72 38 -100 11 -27 22 -52 27 -53 4 -2 7
-9 7 -15 0 -7 14 -41 30 -75 17 -35 30 -73 30 -83 0 -17 94 -214 150 -317 8
-15 41 -77 72 -137 60 -115 65 -120 181 -184 37 -20 49 -21 475 -21 l437 1
-42 37 c-23 20 -68 47 -100 59 -126 49 -120 40 -163 243 -12 58 -25 119 -30
135 -31 115 -17 108 34 -15 39 -93 82 -143 148 -172 15 -7 28 -17 28 -22 0 -4
7 -5 16 -2 8 3 13 2 10 -2 -3 -5 17 -21 44 -37 44 -26 54 -38 96 -127 l48 -98
1648 0 c1337 0 1648 2 1648 13 0 7 23 35 50 62 28 27 50 55 50 62 0 7 9 18 20
25 11 7 50 66 86 131 37 64 68 117 70 117 2 0 -6 -24 -17 -52 -39 -99 -70
-213 -76 -285 l-6 -73 412 0 412 0 15 36 c8 20 32 52 52 72 50 50 120 128 162
182 19 25 37 47 40 50 31 26 150 188 150 204 0 12 15 37 33 56 18 19 50 60 72
90 38 52 48 64 92 116 10 12 41 54 68 94 28 40 58 81 68 91 9 11 14 19 11 19
-3 0 3 12 14 28 11 15 28 53 39 85 11 31 22 56 24 55 16 -9 -93 93 -126 117
-63 47 -738 617 -800 676 -48 46 6 9 176 -121 101 -78 204 -156 229 -175 110
-84 528 -393 553 -410 22 -14 30 -16 36 -6 5 7 10 12 12 11 5 -2 55 17 91 33
26 13 138 135 187 205 l23 33 -98 102 c-55 56 -119 119 -143 142 -25 22 -61
55 -80 73 l-36 33 35 -14 c19 -8 94 -42 166 -76 72 -33 135 -61 141 -61 25 0
106 -41 136 -70 l32 -30 3 597 c1 328 0 598 -2 600 -6 7 -39 6 -75 -2 -31 -7
-33 -6 -27 13 5 14 2 24 -11 30 -28 15 -232 80 -288 92 -97 21 -88 -15 -82
308 3 158 8 297 12 310 7 22 35 32 35 12 0 -5 8 -10 18 -10 10 0 27 -7 38 -15
18 -13 18 -15 2 -45 -9 -16 -13 -30 -8 -30 6 0 10 -4 10 -10 0 -5 -7 -10 -16
-10 -15 0 -15 -2 1 -26 10 -16 14 -35 11 -50 -4 -13 -2 -24 3 -24 5 0 16 -2
24 -5 7 -3 29 8 46 25 18 16 38 30 45 31 6 0 22 2 36 4 14 2 32 1 42 -1 20 -6
33 -53 19 -67 -6 -6 -11 -22 -11 -34 0 -13 -9 -41 -20 -62 -20 -40 -45 -51
-116 -51 -25 0 -34 -4 -35 -17 0 -10 -2 -27 -4 -38 -5 -26 32 -85 53 -85 10 0
22 -10 27 -22 7 -17 20 -24 49 -26 51 -4 86 5 86 23 0 24 23 65 36 65 7 0 18
15 24 34 6 19 14 36 18 38 4 2 19 22 35 45 27 42 27 45 27 198 0 119 -3 160
-14 170 -7 8 -16 36 -20 64 -4 32 -14 56 -29 70 -62 56 -81 71 -88 71 -5 0
-26 15 -46 33 -63 55 -106 77 -155 77 -24 0 -50 -6 -57 -12 -11 -10 -14 -10
-18 0 -3 6 -11 12 -19 12 -8 0 -14 -6 -15 -12 0 -7 -4 -4 -8 7 -7 17 -9 16
-15 -9 l-7 -29 -13 25 c-19 36 -24 90 -31 308 -7 246 -29 469 -61 630 -14 69
-27 133 -30 143 -5 16 -64 17 -1053 17 l-1048 0 -20 -22 c-20 -23 -127 -184
-134 -203 -11 -29 -92 -155 -97 -151 -3 3 10 35 27 71 36 73 36 97 0 39 -12
-21 -24 -33 -26 -27 -3 9 24 63 112 218 19 33 34 63 35 68 0 4 -407 7 -905 7
-498 0 -905 -3 -905 -7 0 -5 16 -57 35 -118 35 -113 39 -140 10 -84 -25 47
-73 111 -77 102 -2 -4 6 -28 19 -53 13 -24 23 -38 23 -31 0 16 46 -47 73 -99
10 -19 33 -46 53 -59 19 -13 39 -33 45 -43 5 -10 15 -18 21 -18 6 0 26 -16 44
-35 l31 -35 8 101 c4 55 8 99 10 97 11 -11 115 -220 115 -230 0 -6 12 -29 26
-49 14 -20 27 -51 29 -67 2 -17 11 -44 19 -60 16 -30 46 -60 46 -46 0 5 8 -7
18 -26 22 -42 19 -50 -8 -25 -11 10 -20 13 -20 6 0 -9 53 -257 85 -398 4 -17
-2 -25 -26 -37 -26 -13 -29 -13 -19 -1 16 19 0 19 -53 1 -26 -10 -39 -10 -44
-3 -4 6 -1 13 5 15 7 2 12 8 12 14 0 5 -9 7 -19 3 -11 -3 -22 -1 -26 5 -3 5 3
10 14 10 11 0 23 5 27 11 4 8 -3 9 -25 4 -29 -6 -32 -4 -51 37 -11 24 -29 58
-39 77 -20 34 -45 89 -67 150 -13 34 -9 61 7 61 5 0 9 5 9 10 0 19 -21 10 -29
-12 l-8 -23 -8 25 c-9 29 -7 129 4 148 4 8 18 -15 35 -60 16 -40 35 -77 42
-81 8 -4 14 -16 14 -27 0 -25 10 -50 20 -50 15 0 -2 74 -20 90 -19 17 -70 116
-70 137 0 7 -4 13 -10 13 -5 0 -10 18 -10 40 0 27 -4 40 -14 40 -7 0 -20 7
-27 16 -15 19 -89 67 -94 62 -2 -2 3 -50 10 -108 27 -207 36 -375 25 -467 -22
-189 -29 -280 -24 -325 l5 -47 -78 -36 c-42 -20 -98 -43 -123 -52 l-46 -16
-47 32 c-26 17 -74 58 -107 89 -58 56 -60 59 -60 110 0 70 -16 66 -23 -5 -5
-49 -1 -66 19 -108 23 -45 23 -48 5 -31 -12 11 -21 14 -21 8 0 -7 5 -12 10
-12 6 0 10 -6 10 -14 0 -8 26 -49 58 -93 l59 -78 -3 -195 -3 -195 14 105 c13
110 22 143 35 135 4 -3 11 11 15 31 3 21 10 33 15 28 5 -5 38 -92 75 -194 36
-102 72 -200 79 -219 12 -31 14 -18 20 134 4 93 13 182 19 198 l12 28 63 -40
c54 -35 70 -41 118 -41 60 0 59 1 226 -162 27 -27 51 -48 54 -48 3 0 -15 28
-39 63 -52 73 -97 150 -97 164 0 6 30 18 68 27 37 10 77 24 89 32 27 17 70 18
76 2 3 -8 6 -7 6 4 1 15 37 35 46 26 4 -4 -6 -82 -20 -158 -4 -24 -3 -30 3
-20 6 8 15 38 20 65 44 221 37 203 67 175 14 -13 25 -28 25 -34 1 -14 35 -56
46 -56 4 0 3 5 -4 12 -19 19 -14 25 32 37 58 14 59 14 52 -5 -3 -9 3 -31 14
-49 l20 -33 -63 -11 c-35 -6 -71 -11 -79 -11 -9 0 -21 -6 -27 -14 -10 -12 -4
-17 40 -30 69 -21 93 -37 157 -105 101 -108 135 -151 120 -156 -7 -2 -103 -36
-213 -76 -110 -39 -208 -73 -217 -76 -10 -3 -18 -8 -18 -12 0 -4 64 -29 143
-55 184 -63 263 -94 394 -157 184 -89 225 -119 288 -214 31 -46 69 -120 86
-166 33 -91 33 -117 0 -40 -11 27 -25 53 -31 56 -10 6 0 -20 53 -136 31 -68
57 -169 43 -169 -3 0 -14 17 -25 38 -11 20 -20 31 -21 24 0 -7 9 -31 20 -53
20 -39 18 -76 -2 -48 -7 10 -8 8 -5 -8 3 -12 -3 -29 -12 -40 -9 -10 -20 -25
-23 -35 -11 -26 -79 -118 -89 -118 -5 0 -9 -6 -9 -14 0 -7 -7 -20 -16 -27 -14
-11 -18 -10 -30 6 -18 24 -29 13 -14 -15 14 -26 3 -43 -11 -17 -6 9 -15 15
-20 11 -6 -4 -6 -11 2 -20 6 -7 8 -21 5 -30 -6 -15 -8 -15 -26 1 -21 19 -26
11 -10 -15 5 -9 5 -19 -2 -27 -8 -10 -15 -7 -34 14 -29 33 -42 25 -18 -12 16
-24 16 -27 0 -43 -15 -15 -18 -15 -42 11 -34 36 -43 27 -14 -13 28 -39 20 -51
-9 -14 -26 33 -40 24 -17 -11 15 -23 15 -26 1 -31 -9 -4 -23 3 -35 17 -22 28
-27 14 -5 -15 20 -26 19 -33 -5 -39 -16 -4 -26 5 -47 44 -27 47 -43 61 -43 38
0 -6 8 -23 19 -37 31 -45 35 -69 12 -81 -24 -13 -41 -14 -41 -2 0 17 -31 83
-37 78 -3 -3 2 -27 11 -53 8 -25 13 -50 10 -55 -12 -20 -33 -7 -48 31 -9 22
-21 40 -27 40 -12 0 -3 -35 17 -65 18 -25 18 -32 -1 -39 -10 -3 -21 6 -32 27
-13 24 -18 28 -21 15 -2 -9 2 -26 8 -38 9 -16 8 -22 -6 -27 -15 -5 -27 5 -37
32 -3 6 -7 7 -11 3 -4 -3 -3 -15 3 -27 7 -13 8 -22 1 -26 -5 -3 -10 -2 -10 2
0 5 -7 18 -15 29 -15 18 -16 17 -10 -14 5 -25 3 -32 -9 -32 -9 0 -16 5 -16 11
0 5 5 7 10 4 6 -3 10 -3 10 0 0 9 -30 65 -35 65 -2 0 -2 -20 -1 -45 5 -61 -14
-58 -44 7 -13 29 -25 47 -27 41 -3 -7 5 -32 15 -57 17 -38 18 -45 5 -50 -29
-11 -43 -6 -49 20 -4 16 -10 22 -16 16 -6 -6 -6 -17 1 -31 10 -18 9 -21 -9
-21 -13 0 -24 11 -34 34 -8 18 -19 37 -25 40 -14 9 -14 7 4 -43 8 -22 10 -41
5 -41 -5 0 -12 9 -15 20 -6 20 -16 25 -28 14 -3 -4 1 -14 10 -23 15 -15 15
-16 -2 -19 -9 -2 -22 2 -26 10 -8 11 -10 11 -18 -1 -6 -10 -12 -4 -22 23 -7
20 -17 36 -22 36 -9 0 -6 -31 8 -62 10 -26 -13 -23 -43 5 l-24 22 6 -22 c5
-15 3 -23 -4 -23 -6 0 -9 3 -7 8 3 4 -1 13 -9 20 -15 13 -17 10 -15 -23 2 -19
0 -18 -19 4 -11 13 -20 29 -20 36 0 7 -7 18 -15 25 -20 17 -20 -1 0 -40 9 -17
12 -30 7 -30 -4 0 -14 16 -21 36 -9 24 -18 34 -27 30 -8 -3 -14 1 -14 9 0 9
-6 12 -15 9 -12 -5 -13 -10 -4 -20 6 -7 8 -18 4 -24 -3 -5 -1 -10 4 -10 6 0
11 -6 11 -12 -1 -11 -11 -1 -48 47 -15 19 -88 150 -101 180 -12 29 -11 31 22
60 46 40 267 171 392 233 77 39 125 55 210 72 136 26 145 29 145 41 0 6 -10 8
-22 4 -16 -4 -19 -3 -9 3 16 11 0 25 -21 17 -7 -2 -94 -16 -193 -30 -145 -21
-215 -26 -364 -26 -177 1 -187 2 -274 32 -51 16 -95 35 -98 41 -4 6 -4 20 0
31 6 16 29 25 112 43 57 13 156 41 219 63 137 47 192 58 369 71 202 15 436 13
542 -6 50 -8 93 -13 96 -10 3 3 0 8 -8 10 -8 2 -41 13 -74 24 -33 11 -73 18
-90 15 -16 -2 -133 3 -260 12 -332 25 -546 29 -712 15 -79 -6 -146 -10 -147
-8 -1 1 0 26 2 53 l5 50 13 -35 c9 -26 13 -30 13 -13 1 12 -3 33 -9 48 -12 31
15 143 38 162 24 20 6 27 -72 31 -59 3 -83 0 -126 -19 -47 -20 -57 -21 -99
-10 -67 18 -80 34 -39 49 18 6 39 21 46 33 13 21 13 21 -9 5 -29 -20 -79 -21
-105 -2 -18 14 -19 29 -16 458 l3 443 -31 45 c-95 142 -190 267 -190 250 0
-19 29 -68 50 -83 10 -7 29 -26 41 -41 21 -27 21 -28 2 -18 -27 15 -82 78 -93
108 -17 44 -40 179 -54 324 -15 146 -35 229 -62 251 -8 6 -14 16 -14 22 0 14
-93 137 -131 172 l-32 30 7 -116 c3 -64 10 -140 16 -170 10 -58 58 -169 72
-169 5 0 6 -5 3 -10 -4 -6 12 -41 34 -78 41 -66 41 -66 8 -28 -28 32 -35 36
-40 21 -10 -24 -8 -33 2 -16 7 10 9 7 8 -12 -2 -27 -11 -35 -21 -18 -3 5 -14
7 -24 5 -38 -10 -238 105 -330 190 -78 72 -77 68 -77 364 l0 264 -38 28 c-33
24 -93 52 -161 74 -14 5 -17 12 -12 32 6 22 -4 37 -75 110 -46 46 -80 84 -76
84 3 0 48 -36 98 -80 51 -44 117 -91 147 -105 40 -18 53 -29 48 -40 -7 -19 56
-91 71 -82 5 3 10 29 12 57 2 42 22 174 36 230 2 8 4 20 5 25 1 6 5 1 10 -10
5 -13 7 0 4 35 -4 47 -3 52 7 30 l12 -25 7 25 c5 14 8 19 9 13 1 -18 31 -16
52 3 12 11 40 17 77 19 45 1 64 7 81 24 l21 21 -777 0 -778 0 -22 -33z m771
-13 c9 -3 16 -10 16 -15 0 -14 -26 -10 -40 6 -13 16 -3 20 24 9z m2020 -121
c11 -38 21 -75 23 -83 3 -8 -12 3 -32 25 -19 21 -33 45 -30 53 3 7 5 27 5 43
0 49 14 33 34 -38z m3016 -3 c-5 -25 -9 -71 -10 -103 0 -53 -3 -61 -38 -98
l-38 -41 3 81 c3 83 3 82 70 189 20 32 23 25 13 -28z m-2630 -42 c68 -78 190
-252 190 -271 0 -5 8 -21 18 -35 28 -42 159 -389 150 -397 -16 -14 -71 -34
-78 -30 -6 3 -10 -1 -10 -10 0 -15 -5 -15 -60 -6 -3 1 10 10 29 22 18 11 31
23 27 26 -3 3 -18 -2 -33 -12 -31 -20 -75 -27 -70 -10 2 5 14 12 27 13 14 2
35 13 49 23 28 22 17 25 -19 4 -32 -18 -40 -18 -40 -1 0 7 -7 19 -15 26 -8 6
-25 35 -38 63 -13 29 -34 63 -46 77 -15 17 -9 -1 18 -54 23 -44 48 -88 57 -98
15 -16 15 -19 0 -42 -22 -35 -20 -39 14 -31 25 5 30 3 30 -12 0 -23 -41 -68
-81 -89 -30 -15 -31 -15 -24 5 5 17 2 21 -17 21 -35 0 -55 57 -68 195 -7 66
-16 144 -21 174 -11 69 -11 74 2 65 8 -4 8 -1 1 12 -13 25 -21 137 -9 125 5
-5 17 -7 26 -4 13 4 13 2 -1 -7 -12 -7 -18 -23 -17 -48 l2 -37 7 35 c7 34 13
26 11 -15 0 -11 5 -5 12 14 l13 34 22 -28 c31 -39 36 -27 12 28 -18 41 -25 47
-52 47 -27 0 -30 3 -25 26 3 20 -1 27 -19 34 -13 5 -24 13 -24 17 0 22 -21
190 -26 210 -4 13 -4 23 -1 23 3 0 38 -37 77 -82z m-395 -52 c8 -7 11 -16 8
-20 -4 -3 -1 -6 5 -6 5 0 12 3 15 8 2 4 2 2 1 -5 -2 -6 1 -13 7 -15 9 -3 78
-219 78 -243 0 -5 -6 -1 -14 9 -8 11 -15 26 -15 34 0 7 -18 50 -40 95 -22 45
-38 87 -36 94 3 7 0 12 -7 10 -7 -1 -11 6 -11 16 1 9 -2 17 -7 17 -5 0 -9 5
-9 10 0 14 9 12 25 -4z m362 -168 c-3 -7 -5 -2 -5 12 0 14 2 19 5 13 2 -7 2
-19 0 -25z m2193 -103 c66 -34 122 -143 157 -306 33 -154 37 -375 10 -471 -10
-32 -23 -82 -31 -111 -19 -69 -76 -193 -132 -287 -74 -125 -61 -118 -194 -109
-63 4 -135 8 -160 9 l-45 1 45 40 c25 22 86 65 135 96 105 65 149 108 192 189
35 66 73 202 73 262 0 32 -4 42 -20 47 -47 15 -167 -34 -233 -94 -24 -23 -47
-41 -51 -41 -3 0 -6 15 -6 33 0 28 8 37 56 71 76 52 186 185 235 281 41 81 45
113 24 180 -7 20 -6 20 9 1 27 -33 28 -11 3 35 -14 24 -36 51 -50 59 -24 13
-28 13 -55 -7 l-30 -22 -6 37 c-3 20 -6 56 -6 80 0 38 2 42 25 42 15 0 39 -7
55 -15z m-124 -144 c5 -41 2 -53 -24 -95 -74 -117 -162 -359 -165 -456 -1 -47
3 -62 31 -104 23 -36 32 -62 32 -91 0 -44 -11 -64 -71 -128 -58 -62 -81 -116
-78 -180 1 -29 -1 -59 -5 -66 -6 -8 -44 -11 -137 -10 -71 0 -129 4 -129 8 0 3
16 31 36 61 92 139 170 322 210 495 24 105 44 243 44 310 0 45 7 75 29 122 42
89 103 175 153 216 l43 36 12 -35 c7 -20 15 -57 19 -83z m82 -243 c4 -61 1
-83 -12 -103 -26 -40 -115 -105 -143 -105 -24 0 -25 2 -20 40 8 59 56 174 88
212 l28 33 1 -48 c0 -30 4 -46 10 -42 6 3 10 26 10 50 0 113 31 83 38 -37z
m-2575 41 c9 -17 17 -37 17 -45 0 -22 128 -265 155 -294 18 -20 21 -29 13 -47
-11 -22 -133 -93 -161 -93 -9 0 -22 20 -33 48 -14 38 -18 88 -22 255 -2 114 0
207 5 207 4 0 16 -14 26 -31z m3157 22 c0 -17 -12 -41 -21 -41 -10 0 -12 33
-2 43 9 10 23 9 23 -2z m-1591 -153 c77 -168 123 -305 146 -433 l7 -40 -26 24
c-59 55 -135 245 -151 376 -3 28 -8 69 -11 93 -3 23 -3 42 1 42 3 0 19 -28 34
-62z m-1049 -33 c21 -7 21 -32 -1 -46 -25 -16 -29 -10 -28 39 1 26 3 39 6 30
2 -9 13 -20 23 -23z m210 -74 c0 -8 -111 -44 -117 -37 -3 3 92 42 110 45 4 0
7 -3 7 -8z m138 -80 c6 -8 12 -26 13 -40 l1 -26 8 25 c8 23 3 -181 -5 -206 -6
-20 -145 -44 -267 -46 -64 -2 -118 -1 -121 2 -2 3 -2 44 1 92 l4 87 57 11 c31
7 65 14 77 17 14 3 24 16 30 40 9 34 13 37 84 58 77 23 87 22 118 -14z m313
-37 c-30 -61 -60 -105 -61 -91 0 4 18 38 40 74 22 37 40 71 40 77 0 5 3 7 6 4
3 -3 -8 -32 -25 -64z m-73 -23 c-4 -44 -33 -109 -44 -99 -2 2 1 20 5 39 5 19
12 51 16 72 9 56 28 47 23 -12z m-118 -62 c0 -39 -5 -79 -10 -90 -14 -25 -45
-26 -35 -1 3 9 12 50 18 90 6 39 15 72 19 72 5 0 8 -32 8 -71z m256 -121 c-3
-106 -10 -215 -15 -243 -5 -27 -7 -51 -6 -53 7 -7 49 98 96 238 27 80 46 127
43 105 -5 -39 -50 -232 -61 -264 -4 -12 -3 -13 6 -5 14 13 105 273 122 350 7
30 16 57 20 60 4 2 16 -13 25 -33 23 -49 120 -143 193 -188 l58 -35 10 -87
c11 -86 11 -88 -18 -145 l-29 -58 -110 0 c-62 0 -111 -4 -115 -10 -3 -5 0 -10
7 -10 7 0 30 -14 50 -30 78 -65 339 -256 374 -275 28 -15 38 -17 42 -7 7 22
24 13 20 -11 -5 -28 -1 -32 82 -82 36 -21 97 -58 135 -81 39 -23 104 -57 145
-75 93 -41 122 -60 185 -122 89 -89 286 -244 673 -531 144 -108 262 -198 262
-201 0 -3 -12 3 -27 13 -23 16 -159 103 -230 147 -89 55 -358 232 -433 285
-128 90 -216 136 -175 90 10 -11 14 -20 8 -20 -12 0 -230 123 -288 163 -70 47
-90 62 -93 68 -2 4 -54 39 -116 79 -94 61 -117 81 -137 119 -23 45 -26 46 -67
43 -36 -2 -42 0 -42 18 0 21 9 25 26 12 30 -24 -75 74 -142 132 -113 98 -274
254 -274 266 0 12 -16 14 -97 10 -34 -1 -66 1 -72 4 -6 4 -5 21 5 48 7 22 14
50 13 62 -1 19 -2 19 -9 -4 -5 -14 -15 -43 -23 -65 l-15 -40 -149 -3 -148 -3
-12 31 c-10 27 -7 39 21 108 19 42 36 85 40 95 3 10 11 15 17 12 6 -4 8 -13 5
-21 -3 -8 -1 -14 5 -14 5 0 23 -21 39 -47 17 -26 30 -40 30 -31 0 8 -7 21 -15
28 -27 22 -28 50 -4 76 24 26 20 31 -13 13 -37 -20 -29 -2 12 25 56 37 50 51
-10 21 -27 -14 -50 -24 -50 -23 1 20 31 113 40 124 19 22 31 17 24 -11 -4 -15
-2 -25 5 -25 6 0 20 -9 31 -20 20 -20 20 -22 4 -49 -17 -28 -16 -30 14 -80 36
-58 37 -61 18 -61 -7 0 -19 -6 -25 -14 -9 -11 -6 -12 15 -8 38 7 39 25 7 85
-29 52 -29 53 -11 83 22 36 22 44 2 44 -10 0 -14 6 -10 15 4 11 -1 15 -19 15
-28 0 -32 12 -10 30 8 7 12 16 9 22 -6 9 114 137 130 138 5 0 6 -80 2 -192z
m-326 138 c0 -3 -4 -8 -10 -11 -5 -3 -10 -1 -10 4 0 6 5 11 10 11 6 0 10 -2
10 -4z m1007 -231 c-3 -66 -13 -153 -22 -192 l-17 -73 -64 0 c-40 0 -64 4 -64
11 0 27 32 129 55 177 25 52 62 156 86 242 l12 45 9 -45 c5 -25 7 -99 5 -165z
m1983 170 c0 -8 -2 -15 -4 -15 -2 0 -6 7 -10 15 -3 8 -1 15 4 15 6 0 10 -7 10
-15z m-1869 -122 c-20 -129 -94 -313 -126 -313 -17 0 -19 11 -6 25 27 28 92
182 112 267 13 53 26 95 27 93 2 -2 -1 -34 -7 -72z m1600 30 c64 -160 169
-516 156 -529 -2 -3 -34 2 -69 11 l-65 17 -7 181 c-7 165 -18 283 -32 330 -9
28 5 20 17 -10z m-2676 -3 c-3 -5 -11 -10 -16 -10 -6 0 -7 5 -4 10 3 6 11 10
16 10 6 0 7 -4 4 -10z m5 -30 c0 -24 -42 -194 -51 -209 -8 -13 -9 -13 -5 4 3
11 2 34 -3 50 -7 24 -8 18 -6 -30 1 -33 -2 -73 -8 -88 l-9 -28 -18 28 c-16 27
-16 31 3 88 11 33 24 65 29 72 5 7 7 16 4 21 -6 11 11 70 27 90 11 14 37 16
37 2z m-1916 -36 c9 -3 16 -14 16 -23 0 -12 2 -13 8 -3 6 9 16 10 40 1 18 -6
30 -14 28 -18 -3 -4 8 -6 23 -3 42 6 50 -17 15 -46 -22 -18 -23 -21 -6 -12 19
9 28 7 52 -10 17 -12 30 -25 30 -30 0 -15 -131 -61 -199 -69 -108 -14 -276 21
-354 73 -33 22 -87 110 -75 121 3 4 46 2 95 -4 48 -6 125 -11 170 -11 74 0 84
-2 114 -27 28 -24 31 -25 21 -6 -14 26 -16 73 -3 73 5 0 16 -3 25 -6z m1703 0
c-3 -3 -12 -4 -19 -1 -8 3 -5 6 6 6 11 1 17 -2 13 -5z m102 -10 c-18 -22 -20
-41 -4 -54 15 -13 9 -40 -9 -40 -22 0 -37 -17 -30 -33 3 -9 12 -17 20 -17 8 0
11 -6 7 -16 -5 -13 -11 -10 -34 15 -15 17 -30 31 -33 31 -14 0 -3 -20 29 -54
19 -21 35 -42 35 -47 0 -6 4 -8 9 -5 8 6 37 -51 30 -58 -2 -2 -44 -8 -92 -13
l-88 -9 -25 33 c-20 26 -23 37 -14 52 5 11 20 22 32 24 13 2 4 5 -19 6 -34 1
-43 5 -43 19 0 9 -9 35 -20 57 -12 23 -18 29 -14 15 3 -14 8 -40 11 -59 l6
-34 -39 7 c-28 5 -35 4 -24 -3 13 -10 13 -11 0 -11 -23 0 -80 56 -79 77 0 16
1 16 10 -2 8 -17 9 -15 5 9 -5 37 2 56 20 56 8 0 14 5 14 10 0 17 42 11 57 -7
13 -17 14 -16 8 3 -5 19 2 23 56 38 59 17 89 15 59 -4 -12 -8 -9 -10 11 -10
15 0 39 -10 54 -22 27 -21 27 -21 16 -1 -6 12 -16 23 -23 26 -12 4 71 34 101
36 11 1 11 -2 0 -15z m21 -11 c0 -5 -5 -15 -10 -23 -8 -12 -10 -11 -10 8 0 12
5 22 10 22 6 0 10 -3 10 -7z m-500 -66 c0 -19 -2 -36 -5 -39 -3 -3 -48 1 -101
8 -114 16 -210 44 -192 56 7 4 77 8 156 8 l142 0 0 -33z m56 -54 c-3 -47 -8
-88 -11 -91 -2 -2 -11 -2 -20 2 -15 5 -13 43 4 71 6 10 7 16 10 73 0 17 6 32
12 32 8 0 10 -25 5 -87z m-64 -11 c12 -12 -3 -74 -16 -69 -6 2 -66 19 -133 38
-68 19 -123 38 -123 43 0 11 261 -1 272 -12z m-78 -93 c-8 -13 10 -11 24 3 8
8 12 8 12 1 0 -22 -33 -24 -54 -4 -19 20 -19 20 2 14 12 -3 19 -9 16 -14z
m1451 -1 c-1 -12 -7 -24 -13 -26 -15 -5 -15 3 -2 29 14 25 17 24 15 -3z m-818
-40 c-16 -10 -21 -2 -13 19 6 15 9 15 16 3 6 -9 5 -17 -3 -22z m-1778 -48
c-13 -10 -20 -19 -16 -20 5 0 -1 -16 -13 -35 -14 -23 -26 -67 -34 -123 l-11
-87 -52 48 c-47 44 -133 147 -133 159 0 2 21 0 48 -5 45 -9 51 -8 132 36 92
50 116 58 79 27z m1625 -159 c10 -9 20 -14 22 -12 3 1 17 -2 33 -8 27 -12 76
-92 64 -105 -15 -15 -35 -3 -58 34 -14 22 -30 39 -36 37 -6 -1 -14 4 -17 12
-3 8 0 11 7 7 6 -4 11 -1 11 7 0 10 -8 13 -27 9 -16 -2 -25 -1 -21 3 4 4 -5
18 -20 32 l-27 24 25 -12 c14 -6 33 -19 44 -28z m186 -103 c0 -4 -11 -8 -25
-8 -14 0 -25 4 -25 9 0 5 -3 17 -7 27 -6 16 -4 16 25 -2 18 -10 32 -22 32 -26z
m-2111 -533 c24 -27 81 -123 81 -135 0 -5 -12 -12 -27 -16 -16 -3 -79 -18
-140 -33 -62 -15 -113 -24 -113 -21 0 4 7 27 15 51 22 62 62 206 69 254 14 81
16 81 58 -2 22 -43 48 -87 57 -98z m3645 -1266 c-3 -5 -10 -7 -15 -3 -5 3 -7
10 -3 15 3 5 10 7 15 3 5 -3 7 -10 3 -15z m-138 -451 c-16 -22 -16 -22 -16 13
0 19 6 41 13 48 19 19 22 -34 3 -61z m-3700 -396 c-17 -16 -18 -16 -5 5 7 12
15 20 18 17 3 -2 -3 -12 -13 -22z"/>
<path d="M3625 4481 c-3 -5 -1 -12 5 -16 5 -3 10 1 10 9 0 18 -6 21 -15 7z"/>
<path d="M3714 4387 c3 -10 6 -22 6 -27 0 -5 17 -26 38 -47 36 -35 75 -95 129
-196 13 -23 23 -36 23 -30 0 29 -94 191 -131 224 -21 20 -39 41 -39 45 0 5 -8
18 -17 29 -14 18 -15 18 -9 2z"/>
<path d="M3590 4383 c0 -6 8 -17 18 -24 16 -13 16 -13 2 6 -8 11 -16 22 -17
24 -2 2 -3 0 -3 -6z"/>
<path d="M3641 4353 c-20 -17 -21 -20 -6 -38 9 -13 13 -14 10 -4 -4 10 3 19
20 27 27 12 34 32 11 32 -8 0 -23 -8 -35 -17z"/>
<path d="M3674 4326 c-10 -8 -16 -17 -13 -21 8 -7 59 15 59 27 0 13 -24 10
-46 -6z"/>
<path d="M3220 4680 c0 -8 5 -22 10 -30 9 -13 10 -13 10 0 0 8 -5 22 -10 30
-9 13 -10 13 -10 0z"/>
<path d="M4249 3273 c-13 -15 -12 -15 9 -4 23 12 28 21 13 21 -5 0 -15 -7 -22
-17z"/>
<path d="M3645 3310 c-7 -12 12 -12 40 0 18 8 17 9 -7 9 -15 1 -30 -3 -33 -9z"/>
<path d="M2220 3100 c-14 -11 -20 -20 -15 -20 6 0 21 9 35 20 14 11 21 20 15
20 -5 0 -21 -9 -35 -20z"/>
<path d="M2000 4990 c0 -7 14 -8 38 -4 51 9 53 14 4 14 -23 0 -42 -5 -42 -10z"/>
<path d="M6960 4978 c0 -40 31 -112 65 -153 36 -45 102 -73 112 -49 3 8 11 14
18 14 21 0 86 73 92 103 3 16 12 31 19 34 7 2 25 20 39 39 l26 34 -185 0 -186
0 0 -22z"/>
<path d="M2542 4663 c-17 -34 -96 -414 -108 -515 -5 -47 -1 -61 32 -128 l38
-75 12 140 13 140 -5 -205 c-2 -113 0 -221 4 -240 l8 -35 7 30 c4 17 6 197 4
400 -2 204 0 400 3 438 3 37 4 67 3 67 -1 0 -6 -8 -11 -17z"/>
<path d="M7467 4618 c-15 -17 -26 -37 -23 -43 2 -7 -2 -25 -10 -40 -8 -15 -14
-42 -14 -60 0 -18 -4 -35 -10 -37 -5 -1 -7 -13 -4 -25 4 -13 11 -20 19 -16 10
3 14 -6 13 -37 0 -29 5 -45 18 -54 40 -30 44 -13 44 170 0 96 -1 174 -3 174
-1 0 -15 -14 -30 -32z"/>
<path d="M3290 4004 c0 -14 62 -114 71 -114 5 0 9 -8 9 -18 0 -10 11 -29 25
-42 14 -13 25 -19 25 -13 0 6 -7 13 -15 17 -8 3 -15 17 -15 31 0 14 -4 25 -9
25 -10 0 -71 86 -71 100 0 5 -4 12 -10 15 -5 3 -10 3 -10 -1z"/>
<path d="M2482 3915 c0 -16 2 -22 5 -12 2 9 2 23 0 30 -3 6 -5 -1 -5 -18z"/>
<path d="M2503 3855 c0 -27 2 -38 4 -22 2 15 2 37 0 50 -2 12 -4 0 -4 -28z"/>
<path d="M2483 3825 c0 -33 2 -45 4 -27 2 18 2 45 0 60 -2 15 -4 0 -4 -33z"/>
<path d="M2501 3784 c0 -11 3 -14 6 -6 3 7 2 16 -1 19 -3 4 -6 -2 -5 -13z"/>
<path d="M2502 3715 c0 -16 2 -22 5 -12 2 9 2 23 0 30 -3 6 -5 -1 -5 -18z"/>
<path d="M790 3301 c0 -11 4 -22 9 -25 4 -3 6 6 3 19 -5 30 -12 33 -12 6z"/>
<path d="M3755 3180 c-18 -8 -17 -9 8 -9 16 -1 26 3 22 9 -3 6 -7 10 -8 9 -1
0 -11 -4 -22 -9z"/>
<path d="M3471 3084 c0 -11 3 -14 6 -6 3 7 2 16 -1 19 -3 4 -6 -2 -5 -13z"/>
<path d="M2662 2755 c0 -93 4 -204 8 -245 5 -52 7 -7 7 150 0 124 -3 234 -8
245 -4 11 -7 -54 -7 -150z"/>
<path d="M1020 2490 c0 -5 5 -10 11 -10 5 0 7 5 4 10 -3 6 -8 10 -11 10 -2 0
-4 -4 -4 -10z"/>
<path d="M2667 2423 c-11 -10 -8 -43 3 -43 6 0 10 11 10 25 0 26 -2 29 -13 18z"/>
<path d="M3956 2285 c4 -8 11 -15 16 -15 6 0 5 6 -2 15 -7 8 -14 15 -16 15 -2
0 -1 -7 2 -15z"/>
<path d="M3850 2289 c0 -3 14 -23 30 -44 17 -21 30 -34 30 -28 0 10 -59 81
-60 72z"/>
<path d="M3996 2277 c3 -10 9 -15 12 -12 3 3 0 11 -7 18 -10 9 -11 8 -5 -6z"/>
<path d="M4060 2286 c0 -2 8 -10 18 -17 15 -13 16 -12 3 4 -13 16 -21 21 -21
13z"/>
<path d="M4160 2272 c7 -13 9 -26 6 -29 -7 -7 40 -99 56 -109 7 -4 2 9 -10 30
-25 42 -27 50 -11 40 13 -7 -13 42 -36 71 -16 19 -16 19 -5 -3z m28 -57 c-3
-3 -9 2 -12 12 -6 14 -5 15 5 6 7 -7 10 -15 7 -18z"/>
<path d="M3783 2263 c-3 -7 -9 -11 -13 -8 -12 7 -19 -20 -10 -35 6 -9 10 -7
15 9 6 19 9 20 23 10 14 -11 15 -11 5 1 -18 20 -16 35 2 20 12 -10 15 -10 15
1 0 7 14 -2 30 -21 29 -32 26 -15 -2 21 -16 18 -58 20 -65 2z"/>
<path d="M3896 2267 c3 -10 9 -15 12 -12 3 3 0 11 -7 18 -10 9 -11 8 -5 -6z"/>
<path d="M4136 2229 c14 -28 28 -48 31 -45 6 5 -44 96 -53 96 -2 0 7 -23 22
-51z"/>
<path d="M3716 2237 c3 -10 9 -15 12 -12 3 3 0 11 -7 18 -10 9 -11 8 -5 -6z"/>
<path d="M4230 2230 c6 -12 9 -28 6 -36 -3 -8 -2 -12 4 -9 5 3 8 -3 7 -13 -1
-19 72 -157 79 -149 2 2 -7 25 -22 50 -14 26 -23 51 -19 56 6 11 -39 106 -56
116 -8 5 -7 1 1 -15z"/>
<path d="M3675 2220 c10 -11 20 -20 22 -20 2 0 -2 9 -9 20 -7 11 -17 20 -22
20 -5 0 -1 -9 9 -20z"/>
<path d="M3600 2212 c0 -5 7 -15 15 -22 8 -7 15 -8 15 -2 0 5 -7 15 -15 22 -8
7 -15 8 -15 2z"/>
<path d="M3646 2205 c4 -8 11 -15 16 -15 6 0 5 6 -2 15 -7 8 -14 15 -16 15 -2
0 -1 -7 2 -15z"/>
<path d="M3500 2204 c0 -5 9 -20 20 -34 18 -24 19 -24 14 -3 -6 22 -34 53 -34
37z"/>
<path d="M3570 2191 c0 -5 5 -13 10 -16 6 -3 10 -2 10 4 0 5 -4 13 -10 16 -5
3 -10 2 -10 -4z"/>
<path d="M3362 2165 c15 -38 28 -54 28 -34 0 7 -9 25 -20 39 l-21 25 13 -30z"/>
<path d="M3460 2184 c0 -6 7 -19 16 -30 14 -18 14 -18 3 6 -14 31 -19 36 -19
24z"/>
<path d="M3440 2168 c0 -9 7 -22 17 -29 15 -13 15 -12 3 11 -17 34 -20 36 -20
18z"/>
<path d="M3410 2165 c0 -5 5 -17 10 -25 5 -8 10 -10 10 -5 0 6 -5 17 -10 25
-5 8 -10 11 -10 5z"/>
<path d="M4176 2157 c3 -10 9 -15 12 -12 3 3 0 11 -7 18 -10 9 -11 8 -5 -6z"/>
<path d="M3301 2149 c-1 -8 6 -24 15 -35 15 -19 15 -19 6 1 -5 11 -12 27 -15
35 -5 13 -6 13 -6 -1z"/>
<path d="M3331 2134 c0 -11 3 -14 6 -6 3 7 2 16 -1 19 -3 4 -6 -2 -5 -13z"/>
<path d="M4346 2120 c3 -14 10 -32 15 -40 7 -13 8 -13 8 0 0 8 -6 26 -15 40
l-15 25 7 -25z"/>
<path d="M3161 2120 c0 -8 4 -24 9 -35 l9 -20 0 20 c0 11 -4 27 -9 35 -9 13
-10 13 -9 0z"/>
<path d="M3247 2123 c-3 -5 0 -19 8 -29 15 -20 18 -11 6 20 -4 11 -10 15 -14
9z"/>
<path d="M4316 2110 c8 -31 53 -119 54 -104 0 6 -14 37 -30 70 -17 32 -27 48
-24 34z"/>
<path d="M3022 2105 c0 -11 4 -31 8 -45 l8 -25 0 25 c0 14 -3 34 -8 45 l-9 20
1 -20z"/>
<path d="M3074 2100 c3 -14 6 -28 6 -32 0 -5 5 -8 11 -8 12 0 2 39 -13 55 -7
7 -9 2 -4 -15z"/>
<path d="M3111 2093 c-1 -18 4 -33 9 -33 12 0 12 17 0 45 -7 17 -9 15 -9 -12z"/>
<path d="M3202 2100 c0 -14 2 -19 5 -12 2 6 2 18 0 25 -3 6 -5 1 -5 -13z"/>
<path d="M2928 2070 c2 -17 9 -33 15 -37 6 -4 8 2 4 18 -4 13 -7 30 -7 37 0 6
-4 12 -8 12 -5 0 -7 -14 -4 -30z"/>
<path d="M2987 2083 c-3 -5 -1 -17 4 -28 7 -17 8 -17 8 8 1 27 -4 34 -12 20z"/>
<path d="M4380 2035 c0 -11 43 -96 51 -101 14 -8 11 3 -16 56 -22 44 -35 60
-35 45z"/>
<path d="M4082 2003 c-12 -5 49 -53 69 -53 5 0 33 -12 62 -26 l52 -26 -55 51
c-30 28 -62 51 -72 51 -9 0 -22 2 -30 4 -7 3 -19 2 -26 -1z"/>
<path d="M7382 1510 c-10 -17 -10 -21 2 -26 18 -7 38 4 31 17 -4 5 2 9 12 9
15 0 16 2 3 10 -23 15 -34 12 -48 -10z"/>
<path d="M6924 348 c-16 -23 -35 -49 -42 -58 -46 -53 -72 -97 -78 -129 -4 -20
-19 -52 -35 -72 -15 -19 -31 -47 -34 -62 l-7 -27 66 0 c56 0 66 3 66 17 0 10
6 42 13 72 9 40 21 63 50 90 20 19 37 43 37 52 0 10 5 19 10 21 6 2 12 14 15
27 2 13 11 34 20 47 21 32 19 39 -10 52 -37 17 -39 16 -71 -30z"/>
<path d="M2 200 c0 -14 2 -19 5 -12 2 6 2 18 0 25 -3 6 -5 1 -5 -13z"/>
<path d="M0 61 l0 -61 40 0 c49 0 51 12 11 68 -45 62 -51 61 -51 -7z"/>
<path d="M5251 14 c0 -11 3 -14 6 -6 3 7 2 16 -1 19 -3 4 -6 -2 -5 -13z"/>
</g>
</svg>
